<mxfile host="Electron" modified="2024-05-01T14:35:47.780Z" agent="Mozilla/5.0 (Windows NT 10.0; Win64; x64) AppleWebKit/537.36 (KHTML, like Gecko) draw.io/24.0.4 Chrome/120.0.6099.109 Electron/28.1.0 Safari/537.36" etag="a2ckaddyDFg0x2yWyzSt" version="24.0.4" type="device">
  <diagram name="Page-1" id="yhNgmOZFzwjoHA-9EQTM">
    <mxGraphModel dx="3586" dy="606" grid="1" gridSize="10" guides="1" tooltips="1" connect="1" arrows="1" fold="1" page="1" pageScale="1" pageWidth="850" pageHeight="1100" math="0" shadow="0">
      <root>
        <mxCell id="0" />
        <mxCell id="1" parent="0" />
        <mxCell id="CafVitOdwLeo8ROwjMI0-1" style="edgeStyle=none;rounded=0;orthogonalLoop=1;jettySize=auto;html=1;exitX=1;exitY=0.3333333333333333;exitDx=0;exitDy=0;exitPerimeter=0;endArrow=none;endFill=0;" edge="1" parent="1" source="CafVitOdwLeo8ROwjMI0-2" target="CafVitOdwLeo8ROwjMI0-10">
          <mxGeometry relative="1" as="geometry" />
        </mxCell>
        <mxCell id="CafVitOdwLeo8ROwjMI0-2" value="Nhân Viên" style="shape=umlActor;verticalLabelPosition=bottom;verticalAlign=top;html=1;outlineConnect=0;" vertex="1" parent="1">
          <mxGeometry x="-1707" y="210" width="30" height="50" as="geometry" />
        </mxCell>
        <mxCell id="CafVitOdwLeo8ROwjMI0-3" value="Đăng nhập" style="ellipse;whiteSpace=wrap;html=1;" vertex="1" parent="1">
          <mxGeometry x="-1277" y="215" width="120" height="40" as="geometry" />
        </mxCell>
        <mxCell id="CafVitOdwLeo8ROwjMI0-4" value="Tra cứu hóa đơn" style="ellipse;whiteSpace=wrap;html=1;" vertex="1" parent="1">
          <mxGeometry x="-1577" y="240" width="120" height="50" as="geometry" />
        </mxCell>
        <mxCell id="CafVitOdwLeo8ROwjMI0-6" value="Đăng xuất" style="ellipse;whiteSpace=wrap;html=1;" vertex="1" parent="1">
          <mxGeometry x="-1557" y="30" width="120" height="40" as="geometry" />
        </mxCell>
        <mxCell id="CafVitOdwLeo8ROwjMI0-7" value="Tra cứu sản phẩm" style="ellipse;whiteSpace=wrap;html=1;" vertex="1" parent="1">
          <mxGeometry x="-1557" y="160" width="120" height="40" as="geometry" />
        </mxCell>
        <mxCell id="CafVitOdwLeo8ROwjMI0-8" style="edgeStyle=none;rounded=0;orthogonalLoop=1;jettySize=auto;html=1;exitX=1;exitY=0.5;exitDx=0;exitDy=0;dashed=1;entryX=0;entryY=0;entryDx=0;entryDy=0;" edge="1" parent="1" source="CafVitOdwLeo8ROwjMI0-10" target="CafVitOdwLeo8ROwjMI0-3">
          <mxGeometry relative="1" as="geometry" />
        </mxCell>
        <mxCell id="CafVitOdwLeo8ROwjMI0-9" value="&amp;lt;&amp;lt;include&amp;gt;&amp;gt;" style="edgeLabel;html=1;align=center;verticalAlign=middle;resizable=0;points=[];" vertex="1" connectable="0" parent="CafVitOdwLeo8ROwjMI0-8">
          <mxGeometry x="0.0909" y="1" relative="1" as="geometry">
            <mxPoint as="offset" />
          </mxGeometry>
        </mxCell>
        <mxCell id="CafVitOdwLeo8ROwjMI0-10" value="Tạo và in hóa đơn" style="ellipse;whiteSpace=wrap;html=1;" vertex="1" parent="1">
          <mxGeometry x="-1557" y="90" width="120" height="40" as="geometry" />
        </mxCell>
        <mxCell id="CafVitOdwLeo8ROwjMI0-11" style="edgeStyle=none;rounded=0;orthogonalLoop=1;jettySize=auto;html=1;exitX=0.5;exitY=0.5;exitDx=0;exitDy=0;exitPerimeter=0;entryX=0;entryY=0.5;entryDx=0;entryDy=0;endArrow=none;endFill=0;" edge="1" parent="1" source="CafVitOdwLeo8ROwjMI0-2" target="CafVitOdwLeo8ROwjMI0-3">
          <mxGeometry relative="1" as="geometry" />
        </mxCell>
        <mxCell id="CafVitOdwLeo8ROwjMI0-12" style="edgeStyle=none;rounded=0;orthogonalLoop=1;jettySize=auto;html=1;exitX=1;exitY=0.5;exitDx=0;exitDy=0;entryX=0.558;entryY=-0.045;entryDx=0;entryDy=0;dashed=1;entryPerimeter=0;" edge="1" parent="1" source="CafVitOdwLeo8ROwjMI0-6" target="CafVitOdwLeo8ROwjMI0-3">
          <mxGeometry relative="1" as="geometry">
            <mxPoint x="-1377" y="160" as="sourcePoint" />
            <mxPoint x="-1457" y="120" as="targetPoint" />
          </mxGeometry>
        </mxCell>
        <mxCell id="CafVitOdwLeo8ROwjMI0-13" value="&amp;lt;&amp;lt;include&amp;gt;&amp;gt;" style="edgeLabel;html=1;align=center;verticalAlign=middle;resizable=0;points=[];" vertex="1" connectable="0" parent="CafVitOdwLeo8ROwjMI0-12">
          <mxGeometry x="0.0909" y="1" relative="1" as="geometry">
            <mxPoint as="offset" />
          </mxGeometry>
        </mxCell>
        <mxCell id="CafVitOdwLeo8ROwjMI0-14" style="edgeStyle=none;rounded=0;orthogonalLoop=1;jettySize=auto;html=1;exitX=1;exitY=0.5;exitDx=0;exitDy=0;entryX=0.052;entryY=0.249;entryDx=0;entryDy=0;dashed=1;entryPerimeter=0;" edge="1" parent="1" source="CafVitOdwLeo8ROwjMI0-7" target="CafVitOdwLeo8ROwjMI0-3">
          <mxGeometry relative="1" as="geometry">
            <mxPoint x="-1404" y="220" as="sourcePoint" />
            <mxPoint x="-1417" y="288" as="targetPoint" />
          </mxGeometry>
        </mxCell>
        <mxCell id="CafVitOdwLeo8ROwjMI0-15" value="&amp;lt;&amp;lt;include&amp;gt;&amp;gt;" style="edgeLabel;html=1;align=center;verticalAlign=middle;resizable=0;points=[];" vertex="1" connectable="0" parent="CafVitOdwLeo8ROwjMI0-14">
          <mxGeometry x="0.0909" y="1" relative="1" as="geometry">
            <mxPoint as="offset" />
          </mxGeometry>
        </mxCell>
        <mxCell id="CafVitOdwLeo8ROwjMI0-16" style="edgeStyle=none;rounded=0;orthogonalLoop=1;jettySize=auto;html=1;entryX=0.5;entryY=1;entryDx=0;entryDy=0;dashed=1;" edge="1" parent="1" source="CafVitOdwLeo8ROwjMI0-4" target="CafVitOdwLeo8ROwjMI0-3">
          <mxGeometry relative="1" as="geometry">
            <mxPoint x="-1465" y="306" as="sourcePoint" />
            <mxPoint x="-1527" y="240" as="targetPoint" />
          </mxGeometry>
        </mxCell>
        <mxCell id="CafVitOdwLeo8ROwjMI0-17" value="&amp;lt;&amp;lt;include&amp;gt;&amp;gt;" style="edgeLabel;html=1;align=center;verticalAlign=middle;resizable=0;points=[];" vertex="1" connectable="0" parent="CafVitOdwLeo8ROwjMI0-16">
          <mxGeometry x="0.0909" y="1" relative="1" as="geometry">
            <mxPoint as="offset" />
          </mxGeometry>
        </mxCell>
        <mxCell id="CafVitOdwLeo8ROwjMI0-18" style="edgeStyle=none;rounded=0;orthogonalLoop=1;jettySize=auto;html=1;exitX=0.75;exitY=0.1;exitDx=0;exitDy=0;exitPerimeter=0;entryX=-0.01;entryY=0.377;entryDx=0;entryDy=0;entryPerimeter=0;endArrow=none;endFill=0;" edge="1" parent="1" source="CafVitOdwLeo8ROwjMI0-2" target="CafVitOdwLeo8ROwjMI0-6">
          <mxGeometry relative="1" as="geometry" />
        </mxCell>
        <mxCell id="CafVitOdwLeo8ROwjMI0-19" style="edgeStyle=none;rounded=0;orthogonalLoop=1;jettySize=auto;html=1;exitX=0.5;exitY=0.5;exitDx=0;exitDy=0;exitPerimeter=0;entryX=0.02;entryY=0.639;entryDx=0;entryDy=0;entryPerimeter=0;endArrow=none;endFill=0;" edge="1" parent="1" source="CafVitOdwLeo8ROwjMI0-2" target="CafVitOdwLeo8ROwjMI0-7">
          <mxGeometry relative="1" as="geometry" />
        </mxCell>
        <mxCell id="CafVitOdwLeo8ROwjMI0-20" style="edgeStyle=none;rounded=0;orthogonalLoop=1;jettySize=auto;html=1;entryX=0.038;entryY=0.327;entryDx=0;entryDy=0;entryPerimeter=0;endArrow=none;endFill=0;" edge="1" parent="1" target="CafVitOdwLeo8ROwjMI0-4">
          <mxGeometry relative="1" as="geometry">
            <mxPoint x="-1687" y="230" as="sourcePoint" />
          </mxGeometry>
        </mxCell>
        <mxCell id="CafVitOdwLeo8ROwjMI0-24" style="edgeStyle=none;rounded=0;orthogonalLoop=1;jettySize=auto;html=1;exitX=1;exitY=0.3333333333333333;exitDx=0;exitDy=0;exitPerimeter=0;entryX=0;entryY=0.5;entryDx=0;entryDy=0;endArrow=none;endFill=0;" edge="1" parent="1" source="CafVitOdwLeo8ROwjMI0-25" target="CafVitOdwLeo8ROwjMI0-64">
          <mxGeometry relative="1" as="geometry" />
        </mxCell>
        <mxCell id="CafVitOdwLeo8ROwjMI0-25" value="Quản Lý" style="shape=umlActor;verticalLabelPosition=bottom;verticalAlign=top;html=1;outlineConnect=0;" vertex="1" parent="1">
          <mxGeometry x="-1697" y="610" width="20" height="40" as="geometry" />
        </mxCell>
        <mxCell id="CafVitOdwLeo8ROwjMI0-26" value="" style="shape=flexArrow;endArrow=classic;html=1;rounded=0;" edge="1" parent="1">
          <mxGeometry width="50" height="50" relative="1" as="geometry">
            <mxPoint x="-1687" y="590" as="sourcePoint" />
            <mxPoint x="-1687" y="290" as="targetPoint" />
            <Array as="points" />
          </mxGeometry>
        </mxCell>
        <mxCell id="CafVitOdwLeo8ROwjMI0-49" style="edgeStyle=none;rounded=0;orthogonalLoop=1;jettySize=auto;html=1;exitX=0.5;exitY=1;exitDx=0;exitDy=0;" edge="1" parent="1">
          <mxGeometry relative="1" as="geometry">
            <mxPoint x="-1152" y="900" as="sourcePoint" />
            <mxPoint x="-1152" y="900" as="targetPoint" />
          </mxGeometry>
        </mxCell>
        <mxCell id="CafVitOdwLeo8ROwjMI0-64" value="Quản lý khách hàng" style="ellipse;whiteSpace=wrap;html=1;" vertex="1" parent="1">
          <mxGeometry x="-1616.74" y="360" width="100" height="40" as="geometry" />
        </mxCell>
        <mxCell id="CafVitOdwLeo8ROwjMI0-65" value="Xóa" style="ellipse;whiteSpace=wrap;html=1;" vertex="1" parent="1">
          <mxGeometry x="-1601.74" y="560" width="70" height="30" as="geometry" />
        </mxCell>
        <mxCell id="CafVitOdwLeo8ROwjMI0-86" style="edgeStyle=none;rounded=0;orthogonalLoop=1;jettySize=auto;html=1;exitX=1;exitY=0;exitDx=0;exitDy=0;entryX=0.731;entryY=0.924;entryDx=0;entryDy=0;entryPerimeter=0;dashed=1;" edge="1" parent="1" source="CafVitOdwLeo8ROwjMI0-64" target="CafVitOdwLeo8ROwjMI0-3">
          <mxGeometry relative="1" as="geometry" />
        </mxCell>
        <mxCell id="CafVitOdwLeo8ROwjMI0-87" value="&amp;lt;&amp;lt;include&amp;gt;&amp;gt;" style="edgeLabel;html=1;align=center;verticalAlign=middle;resizable=0;points=[];" vertex="1" connectable="0" parent="CafVitOdwLeo8ROwjMI0-86">
          <mxGeometry x="-0.1638" y="3" relative="1" as="geometry">
            <mxPoint as="offset" />
          </mxGeometry>
        </mxCell>
        <mxCell id="CafVitOdwLeo8ROwjMI0-88" style="edgeStyle=none;rounded=0;orthogonalLoop=1;jettySize=auto;html=1;exitX=1;exitY=0.3333333333333333;exitDx=0;exitDy=0;exitPerimeter=0;endArrow=none;endFill=0;" edge="1" parent="1" source="CafVitOdwLeo8ROwjMI0-89" target="CafVitOdwLeo8ROwjMI0-96">
          <mxGeometry relative="1" as="geometry" />
        </mxCell>
        <mxCell id="CafVitOdwLeo8ROwjMI0-89" value="Nhân Viên" style="shape=umlActor;verticalLabelPosition=bottom;verticalAlign=top;html=1;outlineConnect=0;" vertex="1" parent="1">
          <mxGeometry x="-1707" y="210" width="30" height="50" as="geometry" />
        </mxCell>
        <mxCell id="CafVitOdwLeo8ROwjMI0-90" value="Đăng nhập" style="ellipse;whiteSpace=wrap;html=1;" vertex="1" parent="1">
          <mxGeometry x="-1277" y="215" width="120" height="40" as="geometry" />
        </mxCell>
        <mxCell id="CafVitOdwLeo8ROwjMI0-91" value="Thống kê doanh thu mỗi ngày" style="ellipse;whiteSpace=wrap;html=1;" vertex="1" parent="1">
          <mxGeometry x="-1601.74" y="300" width="120" height="50" as="geometry" />
        </mxCell>
        <mxCell id="CafVitOdwLeo8ROwjMI0-92" value="Đăng xuất" style="ellipse;whiteSpace=wrap;html=1;" vertex="1" parent="1">
          <mxGeometry x="-1557" y="30" width="120" height="40" as="geometry" />
        </mxCell>
        <mxCell id="CafVitOdwLeo8ROwjMI0-93" value="Tra cứu sản phẩm" style="ellipse;whiteSpace=wrap;html=1;" vertex="1" parent="1">
          <mxGeometry x="-1557" y="160" width="120" height="40" as="geometry" />
        </mxCell>
        <mxCell id="CafVitOdwLeo8ROwjMI0-94" style="edgeStyle=none;rounded=0;orthogonalLoop=1;jettySize=auto;html=1;exitX=1;exitY=0.5;exitDx=0;exitDy=0;dashed=1;entryX=0;entryY=0;entryDx=0;entryDy=0;" edge="1" parent="1" source="CafVitOdwLeo8ROwjMI0-96" target="CafVitOdwLeo8ROwjMI0-90">
          <mxGeometry relative="1" as="geometry" />
        </mxCell>
        <mxCell id="CafVitOdwLeo8ROwjMI0-95" value="&amp;lt;&amp;lt;include&amp;gt;&amp;gt;" style="edgeLabel;html=1;align=center;verticalAlign=middle;resizable=0;points=[];" vertex="1" connectable="0" parent="CafVitOdwLeo8ROwjMI0-94">
          <mxGeometry x="0.0909" y="1" relative="1" as="geometry">
            <mxPoint as="offset" />
          </mxGeometry>
        </mxCell>
        <mxCell id="CafVitOdwLeo8ROwjMI0-96" value="Tạo và in hóa đơn" style="ellipse;whiteSpace=wrap;html=1;" vertex="1" parent="1">
          <mxGeometry x="-1557" y="90" width="120" height="40" as="geometry" />
        </mxCell>
        <mxCell id="CafVitOdwLeo8ROwjMI0-97" style="edgeStyle=none;rounded=0;orthogonalLoop=1;jettySize=auto;html=1;exitX=0.5;exitY=0.5;exitDx=0;exitDy=0;exitPerimeter=0;entryX=0;entryY=0.5;entryDx=0;entryDy=0;endArrow=none;endFill=0;" edge="1" parent="1" source="CafVitOdwLeo8ROwjMI0-89" target="CafVitOdwLeo8ROwjMI0-90">
          <mxGeometry relative="1" as="geometry" />
        </mxCell>
        <mxCell id="CafVitOdwLeo8ROwjMI0-98" style="edgeStyle=none;rounded=0;orthogonalLoop=1;jettySize=auto;html=1;exitX=1;exitY=0.5;exitDx=0;exitDy=0;entryX=0.558;entryY=-0.045;entryDx=0;entryDy=0;dashed=1;entryPerimeter=0;" edge="1" parent="1" source="CafVitOdwLeo8ROwjMI0-92" target="CafVitOdwLeo8ROwjMI0-90">
          <mxGeometry relative="1" as="geometry">
            <mxPoint x="-1377" y="160" as="sourcePoint" />
            <mxPoint x="-1457" y="120" as="targetPoint" />
          </mxGeometry>
        </mxCell>
        <mxCell id="CafVitOdwLeo8ROwjMI0-99" value="&amp;lt;&amp;lt;include&amp;gt;&amp;gt;" style="edgeLabel;html=1;align=center;verticalAlign=middle;resizable=0;points=[];" vertex="1" connectable="0" parent="CafVitOdwLeo8ROwjMI0-98">
          <mxGeometry x="0.0909" y="1" relative="1" as="geometry">
            <mxPoint as="offset" />
          </mxGeometry>
        </mxCell>
        <mxCell id="CafVitOdwLeo8ROwjMI0-100" style="edgeStyle=none;rounded=0;orthogonalLoop=1;jettySize=auto;html=1;exitX=1;exitY=0.5;exitDx=0;exitDy=0;entryX=0.052;entryY=0.249;entryDx=0;entryDy=0;dashed=1;entryPerimeter=0;" edge="1" parent="1" source="CafVitOdwLeo8ROwjMI0-93" target="CafVitOdwLeo8ROwjMI0-90">
          <mxGeometry relative="1" as="geometry">
            <mxPoint x="-1404" y="220" as="sourcePoint" />
            <mxPoint x="-1417" y="288" as="targetPoint" />
          </mxGeometry>
        </mxCell>
        <mxCell id="CafVitOdwLeo8ROwjMI0-101" value="&amp;lt;&amp;lt;include&amp;gt;&amp;gt;" style="edgeLabel;html=1;align=center;verticalAlign=middle;resizable=0;points=[];" vertex="1" connectable="0" parent="CafVitOdwLeo8ROwjMI0-100">
          <mxGeometry x="0.0909" y="1" relative="1" as="geometry">
            <mxPoint as="offset" />
          </mxGeometry>
        </mxCell>
        <mxCell id="CafVitOdwLeo8ROwjMI0-102" style="edgeStyle=none;rounded=0;orthogonalLoop=1;jettySize=auto;html=1;entryX=0.5;entryY=1;entryDx=0;entryDy=0;dashed=1;" edge="1" parent="1" source="CafVitOdwLeo8ROwjMI0-91" target="CafVitOdwLeo8ROwjMI0-90">
          <mxGeometry relative="1" as="geometry">
            <mxPoint x="-1465" y="306" as="sourcePoint" />
            <mxPoint x="-1527" y="240" as="targetPoint" />
          </mxGeometry>
        </mxCell>
        <mxCell id="CafVitOdwLeo8ROwjMI0-103" value="&amp;lt;&amp;lt;include&amp;gt;&amp;gt;" style="edgeLabel;html=1;align=center;verticalAlign=middle;resizable=0;points=[];" vertex="1" connectable="0" parent="CafVitOdwLeo8ROwjMI0-102">
          <mxGeometry x="0.0909" y="1" relative="1" as="geometry">
            <mxPoint as="offset" />
          </mxGeometry>
        </mxCell>
        <mxCell id="CafVitOdwLeo8ROwjMI0-104" style="edgeStyle=none;rounded=0;orthogonalLoop=1;jettySize=auto;html=1;exitX=0.75;exitY=0.1;exitDx=0;exitDy=0;exitPerimeter=0;entryX=-0.01;entryY=0.377;entryDx=0;entryDy=0;entryPerimeter=0;endArrow=none;endFill=0;" edge="1" parent="1" source="CafVitOdwLeo8ROwjMI0-89" target="CafVitOdwLeo8ROwjMI0-92">
          <mxGeometry relative="1" as="geometry" />
        </mxCell>
        <mxCell id="CafVitOdwLeo8ROwjMI0-105" style="edgeStyle=none;rounded=0;orthogonalLoop=1;jettySize=auto;html=1;exitX=0.5;exitY=0.5;exitDx=0;exitDy=0;exitPerimeter=0;entryX=0.02;entryY=0.639;entryDx=0;entryDy=0;entryPerimeter=0;endArrow=none;endFill=0;" edge="1" parent="1" source="CafVitOdwLeo8ROwjMI0-89" target="CafVitOdwLeo8ROwjMI0-93">
          <mxGeometry relative="1" as="geometry" />
        </mxCell>
        <mxCell id="CafVitOdwLeo8ROwjMI0-106" style="edgeStyle=none;rounded=0;orthogonalLoop=1;jettySize=auto;html=1;exitX=1;exitY=1;exitDx=0;exitDy=0;exitPerimeter=0;entryX=0.038;entryY=0.327;entryDx=0;entryDy=0;entryPerimeter=0;endArrow=none;endFill=0;" edge="1" parent="1" source="CafVitOdwLeo8ROwjMI0-89" target="CafVitOdwLeo8ROwjMI0-91">
          <mxGeometry relative="1" as="geometry" />
        </mxCell>
        <mxCell id="CafVitOdwLeo8ROwjMI0-107" style="edgeStyle=none;rounded=0;orthogonalLoop=1;jettySize=auto;html=1;exitX=0.5;exitY=0.5;exitDx=0;exitDy=0;exitPerimeter=0;entryX=0;entryY=0.5;entryDx=0;entryDy=0;endArrow=none;endFill=0;" edge="1" parent="1" source="CafVitOdwLeo8ROwjMI0-111" target="CafVitOdwLeo8ROwjMI0-129">
          <mxGeometry relative="1" as="geometry">
            <mxPoint x="-1607" y="559.9999999999998" as="sourcePoint" />
          </mxGeometry>
        </mxCell>
        <mxCell id="CafVitOdwLeo8ROwjMI0-108" style="edgeStyle=none;rounded=0;orthogonalLoop=1;jettySize=auto;html=1;exitX=0.5;exitY=0.5;exitDx=0;exitDy=0;exitPerimeter=0;entryX=0;entryY=0.5;entryDx=0;entryDy=0;endArrow=none;endFill=0;" edge="1" parent="1" source="CafVitOdwLeo8ROwjMI0-111" target="CafVitOdwLeo8ROwjMI0-126">
          <mxGeometry relative="1" as="geometry" />
        </mxCell>
        <mxCell id="CafVitOdwLeo8ROwjMI0-109" style="edgeStyle=none;rounded=0;orthogonalLoop=1;jettySize=auto;html=1;exitX=0.5;exitY=0.5;exitDx=0;exitDy=0;exitPerimeter=0;entryX=0;entryY=1;entryDx=0;entryDy=0;endArrow=none;endFill=0;" edge="1" parent="1" source="CafVitOdwLeo8ROwjMI0-111" target="CafVitOdwLeo8ROwjMI0-115">
          <mxGeometry relative="1" as="geometry">
            <mxPoint x="-1702" y="660.0000000000002" as="sourcePoint" />
          </mxGeometry>
        </mxCell>
        <mxCell id="CafVitOdwLeo8ROwjMI0-110" style="edgeStyle=none;rounded=0;orthogonalLoop=1;jettySize=auto;html=1;exitX=1;exitY=0.3333333333333333;exitDx=0;exitDy=0;exitPerimeter=0;entryX=0;entryY=0.5;entryDx=0;entryDy=0;endArrow=none;endFill=0;" edge="1" parent="1" source="CafVitOdwLeo8ROwjMI0-111" target="CafVitOdwLeo8ROwjMI0-150">
          <mxGeometry relative="1" as="geometry" />
        </mxCell>
        <mxCell id="CafVitOdwLeo8ROwjMI0-111" value="Quản Lý" style="shape=umlActor;verticalLabelPosition=bottom;verticalAlign=top;html=1;outlineConnect=0;" vertex="1" parent="1">
          <mxGeometry x="-1697" y="610" width="20" height="40" as="geometry" />
        </mxCell>
        <mxCell id="CafVitOdwLeo8ROwjMI0-112" value="" style="shape=flexArrow;endArrow=classic;html=1;rounded=0;" edge="1" parent="1">
          <mxGeometry width="50" height="50" relative="1" as="geometry">
            <mxPoint x="-1687" y="590" as="sourcePoint" />
            <mxPoint x="-1687" y="290" as="targetPoint" />
            <Array as="points" />
          </mxGeometry>
        </mxCell>
        <mxCell id="CafVitOdwLeo8ROwjMI0-113" style="edgeStyle=none;rounded=0;orthogonalLoop=1;jettySize=auto;html=1;exitX=0.5;exitY=0;exitDx=0;exitDy=0;entryX=1;entryY=0.5;entryDx=0;entryDy=0;dashed=1;" edge="1" parent="1" source="CafVitOdwLeo8ROwjMI0-115" target="CafVitOdwLeo8ROwjMI0-90">
          <mxGeometry relative="1" as="geometry" />
        </mxCell>
        <mxCell id="CafVitOdwLeo8ROwjMI0-114" value="&amp;lt;&amp;lt;include&amp;gt;&amp;gt;" style="edgeLabel;html=1;align=center;verticalAlign=middle;resizable=0;points=[];" vertex="1" connectable="0" parent="CafVitOdwLeo8ROwjMI0-113">
          <mxGeometry x="-0.0146" y="2" relative="1" as="geometry">
            <mxPoint as="offset" />
          </mxGeometry>
        </mxCell>
        <mxCell id="CafVitOdwLeo8ROwjMI0-115" value="Quản lý kho sản phẩm" style="ellipse;whiteSpace=wrap;html=1;" vertex="1" parent="1">
          <mxGeometry x="-982" y="850" width="100" height="40" as="geometry" />
        </mxCell>
        <mxCell id="CafVitOdwLeo8ROwjMI0-116" style="edgeStyle=none;rounded=0;orthogonalLoop=1;jettySize=auto;html=1;exitX=0;exitY=0;exitDx=0;exitDy=0;entryX=1;entryY=1;entryDx=0;entryDy=0;dashed=1;" edge="1" parent="1" source="CafVitOdwLeo8ROwjMI0-118" target="CafVitOdwLeo8ROwjMI0-115">
          <mxGeometry relative="1" as="geometry" />
        </mxCell>
        <mxCell id="CafVitOdwLeo8ROwjMI0-117" value="&amp;lt;&amp;lt;extend&amp;gt;&amp;gt;" style="edgeLabel;html=1;align=center;verticalAlign=middle;resizable=0;points=[];" vertex="1" connectable="0" parent="CafVitOdwLeo8ROwjMI0-116">
          <mxGeometry x="-0.2237" y="-3" relative="1" as="geometry">
            <mxPoint as="offset" />
          </mxGeometry>
        </mxCell>
        <mxCell id="CafVitOdwLeo8ROwjMI0-118" value="Thêm" style="ellipse;whiteSpace=wrap;html=1;" vertex="1" parent="1">
          <mxGeometry x="-990" y="960" width="70" height="30" as="geometry" />
        </mxCell>
        <mxCell id="CafVitOdwLeo8ROwjMI0-119" value="Sửa" style="ellipse;whiteSpace=wrap;html=1;" vertex="1" parent="1">
          <mxGeometry x="-1087" y="950" width="70" height="30" as="geometry" />
        </mxCell>
        <mxCell id="CafVitOdwLeo8ROwjMI0-120" value="Xóa" style="ellipse;whiteSpace=wrap;html=1;" vertex="1" parent="1">
          <mxGeometry x="-1150" y="930" width="70" height="30" as="geometry" />
        </mxCell>
        <mxCell id="CafVitOdwLeo8ROwjMI0-121" value="Xóa" style="ellipse;whiteSpace=wrap;html=1;" vertex="1" parent="1">
          <mxGeometry x="-1310" y="730" width="70" height="30" as="geometry" />
        </mxCell>
        <mxCell id="CafVitOdwLeo8ROwjMI0-122" value="Sửa" style="ellipse;whiteSpace=wrap;html=1;" vertex="1" parent="1">
          <mxGeometry x="-1232" y="750" width="70" height="30" as="geometry" />
        </mxCell>
        <mxCell id="CafVitOdwLeo8ROwjMI0-123" value="Thêm" style="ellipse;whiteSpace=wrap;html=1;" vertex="1" parent="1">
          <mxGeometry x="-1120" y="780" width="70" height="30" as="geometry" />
        </mxCell>
        <mxCell id="CafVitOdwLeo8ROwjMI0-124" style="edgeStyle=none;rounded=0;orthogonalLoop=1;jettySize=auto;html=1;exitX=0.5;exitY=0;exitDx=0;exitDy=0;entryX=1;entryY=1;entryDx=0;entryDy=0;dashed=1;" edge="1" parent="1" source="CafVitOdwLeo8ROwjMI0-126" target="CafVitOdwLeo8ROwjMI0-90">
          <mxGeometry relative="1" as="geometry" />
        </mxCell>
        <mxCell id="CafVitOdwLeo8ROwjMI0-125" value="&amp;lt;&amp;lt;include&amp;gt;&amp;gt;" style="edgeLabel;html=1;align=center;verticalAlign=middle;resizable=0;points=[];" vertex="1" connectable="0" parent="CafVitOdwLeo8ROwjMI0-124">
          <mxGeometry x="0.0932" y="-3" relative="1" as="geometry">
            <mxPoint as="offset" />
          </mxGeometry>
        </mxCell>
        <mxCell id="CafVitOdwLeo8ROwjMI0-126" value="Quản lý nhân viên" style="ellipse;whiteSpace=wrap;html=1;" vertex="1" parent="1">
          <mxGeometry x="-1130" y="670" width="100" height="40" as="geometry" />
        </mxCell>
        <mxCell id="CafVitOdwLeo8ROwjMI0-127" style="edgeStyle=none;rounded=0;orthogonalLoop=1;jettySize=auto;html=1;exitX=0.5;exitY=0;exitDx=0;exitDy=0;entryX=1;entryY=1;entryDx=0;entryDy=0;dashed=1;" edge="1" parent="1" source="CafVitOdwLeo8ROwjMI0-129" target="CafVitOdwLeo8ROwjMI0-90">
          <mxGeometry relative="1" as="geometry" />
        </mxCell>
        <mxCell id="CafVitOdwLeo8ROwjMI0-128" value="&amp;lt;&amp;lt;include&amp;gt;&amp;gt;" style="edgeLabel;html=1;align=center;verticalAlign=middle;resizable=0;points=[];" vertex="1" connectable="0" parent="CafVitOdwLeo8ROwjMI0-127">
          <mxGeometry x="0.0146" y="1" relative="1" as="geometry">
            <mxPoint x="1" as="offset" />
          </mxGeometry>
        </mxCell>
        <mxCell id="CafVitOdwLeo8ROwjMI0-129" value="Quản lý tài khoản nhân viên" style="ellipse;whiteSpace=wrap;html=1;" vertex="1" parent="1">
          <mxGeometry x="-1330" y="550" width="100" height="40" as="geometry" />
        </mxCell>
        <mxCell id="CafVitOdwLeo8ROwjMI0-130" value="Thêm" style="ellipse;whiteSpace=wrap;html=1;" vertex="1" parent="1">
          <mxGeometry x="-1240" y="630" width="70" height="30" as="geometry" />
        </mxCell>
        <mxCell id="CafVitOdwLeo8ROwjMI0-131" value="Sửa" style="ellipse;whiteSpace=wrap;html=1;" vertex="1" parent="1">
          <mxGeometry x="-1330" y="630" width="70" height="30" as="geometry" />
        </mxCell>
        <mxCell id="CafVitOdwLeo8ROwjMI0-132" style="edgeStyle=none;rounded=0;orthogonalLoop=1;jettySize=auto;html=1;exitX=0.5;exitY=0;exitDx=0;exitDy=0;entryX=0;entryY=1;entryDx=0;entryDy=0;dashed=1;" edge="1" parent="1" source="CafVitOdwLeo8ROwjMI0-134" target="CafVitOdwLeo8ROwjMI0-129">
          <mxGeometry relative="1" as="geometry" />
        </mxCell>
        <mxCell id="CafVitOdwLeo8ROwjMI0-133" value="&amp;lt;&amp;lt;extend&amp;gt;&amp;gt;" style="edgeLabel;html=1;align=center;verticalAlign=middle;resizable=0;points=[];" vertex="1" connectable="0" parent="CafVitOdwLeo8ROwjMI0-132">
          <mxGeometry x="-0.0061" relative="1" as="geometry">
            <mxPoint x="1" as="offset" />
          </mxGeometry>
        </mxCell>
        <mxCell id="CafVitOdwLeo8ROwjMI0-134" value="Xóa" style="ellipse;whiteSpace=wrap;html=1;" vertex="1" parent="1">
          <mxGeometry x="-1412" y="630" width="70" height="30" as="geometry" />
        </mxCell>
        <mxCell id="CafVitOdwLeo8ROwjMI0-135" style="edgeStyle=none;rounded=0;orthogonalLoop=1;jettySize=auto;html=1;exitX=0.5;exitY=1;exitDx=0;exitDy=0;" edge="1" parent="1" source="CafVitOdwLeo8ROwjMI0-120" target="CafVitOdwLeo8ROwjMI0-120">
          <mxGeometry relative="1" as="geometry" />
        </mxCell>
        <mxCell id="CafVitOdwLeo8ROwjMI0-136" style="edgeStyle=none;rounded=0;orthogonalLoop=1;jettySize=auto;html=1;exitX=0.5;exitY=0;exitDx=0;exitDy=0;entryX=0.443;entryY=0.979;entryDx=0;entryDy=0;entryPerimeter=0;dashed=1;" edge="1" parent="1" source="CafVitOdwLeo8ROwjMI0-131" target="CafVitOdwLeo8ROwjMI0-129">
          <mxGeometry relative="1" as="geometry" />
        </mxCell>
        <mxCell id="CafVitOdwLeo8ROwjMI0-137" value="&amp;lt;&amp;lt;extend&amp;gt;&amp;gt;" style="edgeLabel;html=1;align=center;verticalAlign=middle;resizable=0;points=[];" vertex="1" connectable="0" parent="CafVitOdwLeo8ROwjMI0-136">
          <mxGeometry x="0.2532" y="-4" relative="1" as="geometry">
            <mxPoint y="14" as="offset" />
          </mxGeometry>
        </mxCell>
        <mxCell id="CafVitOdwLeo8ROwjMI0-138" style="edgeStyle=none;rounded=0;orthogonalLoop=1;jettySize=auto;html=1;exitX=0.5;exitY=0;exitDx=0;exitDy=0;entryX=0.943;entryY=0.879;entryDx=0;entryDy=0;entryPerimeter=0;dashed=1;" edge="1" parent="1" source="CafVitOdwLeo8ROwjMI0-130" target="CafVitOdwLeo8ROwjMI0-129">
          <mxGeometry relative="1" as="geometry" />
        </mxCell>
        <mxCell id="CafVitOdwLeo8ROwjMI0-139" value="&amp;lt;&amp;lt;extend&amp;gt;&amp;gt;" style="edgeLabel;html=1;align=center;verticalAlign=middle;resizable=0;points=[];" vertex="1" connectable="0" parent="CafVitOdwLeo8ROwjMI0-138">
          <mxGeometry x="-0.2307" y="-1" relative="1" as="geometry">
            <mxPoint as="offset" />
          </mxGeometry>
        </mxCell>
        <mxCell id="CafVitOdwLeo8ROwjMI0-140" style="edgeStyle=none;rounded=0;orthogonalLoop=1;jettySize=auto;html=1;exitX=0.5;exitY=0;exitDx=0;exitDy=0;entryX=0.037;entryY=0.829;entryDx=0;entryDy=0;entryPerimeter=0;dashed=1;" edge="1" parent="1" source="CafVitOdwLeo8ROwjMI0-121" target="CafVitOdwLeo8ROwjMI0-126">
          <mxGeometry relative="1" as="geometry" />
        </mxCell>
        <mxCell id="CafVitOdwLeo8ROwjMI0-141" value="&amp;lt;&amp;lt;extend&amp;gt;&amp;gt;" style="edgeLabel;html=1;align=center;verticalAlign=middle;resizable=0;points=[];" vertex="1" connectable="0" parent="CafVitOdwLeo8ROwjMI0-140">
          <mxGeometry x="-0.4114" relative="1" as="geometry">
            <mxPoint y="1" as="offset" />
          </mxGeometry>
        </mxCell>
        <mxCell id="CafVitOdwLeo8ROwjMI0-142" style="edgeStyle=none;rounded=0;orthogonalLoop=1;jettySize=auto;html=1;exitX=0.5;exitY=0;exitDx=0;exitDy=0;entryX=0.363;entryY=0.946;entryDx=0;entryDy=0;entryPerimeter=0;dashed=1;" edge="1" parent="1" source="CafVitOdwLeo8ROwjMI0-122" target="CafVitOdwLeo8ROwjMI0-126">
          <mxGeometry relative="1" as="geometry">
            <mxPoint x="-1327" y="690" as="sourcePoint" />
            <mxPoint x="-1283" y="673" as="targetPoint" />
          </mxGeometry>
        </mxCell>
        <mxCell id="CafVitOdwLeo8ROwjMI0-143" value="&amp;lt;&amp;lt;extend&amp;gt;&amp;gt;" style="edgeLabel;html=1;align=center;verticalAlign=middle;resizable=0;points=[];" vertex="1" connectable="0" parent="CafVitOdwLeo8ROwjMI0-142">
          <mxGeometry x="-0.149" y="2" relative="1" as="geometry">
            <mxPoint as="offset" />
          </mxGeometry>
        </mxCell>
        <mxCell id="CafVitOdwLeo8ROwjMI0-144" style="edgeStyle=none;rounded=0;orthogonalLoop=1;jettySize=auto;html=1;exitX=0;exitY=0;exitDx=0;exitDy=0;entryX=0.627;entryY=1.048;entryDx=0;entryDy=0;dashed=1;entryPerimeter=0;" edge="1" parent="1" source="CafVitOdwLeo8ROwjMI0-123" target="CafVitOdwLeo8ROwjMI0-126">
          <mxGeometry relative="1" as="geometry">
            <mxPoint x="-1281" y="690" as="sourcePoint" />
            <mxPoint x="-1237" y="673" as="targetPoint" />
          </mxGeometry>
        </mxCell>
        <mxCell id="CafVitOdwLeo8ROwjMI0-145" value="&amp;lt;&amp;lt;extend&amp;gt;&amp;gt;" style="edgeLabel;html=1;align=center;verticalAlign=middle;resizable=0;points=[];" vertex="1" connectable="0" parent="CafVitOdwLeo8ROwjMI0-144">
          <mxGeometry x="0.1891" y="-3" relative="1" as="geometry">
            <mxPoint as="offset" />
          </mxGeometry>
        </mxCell>
        <mxCell id="CafVitOdwLeo8ROwjMI0-146" style="edgeStyle=none;rounded=0;orthogonalLoop=1;jettySize=auto;html=1;exitX=0;exitY=0;exitDx=0;exitDy=0;entryX=0;entryY=1;entryDx=0;entryDy=0;dashed=1;" edge="1" parent="1" source="CafVitOdwLeo8ROwjMI0-120" target="CafVitOdwLeo8ROwjMI0-115">
          <mxGeometry relative="1" as="geometry">
            <mxPoint x="-1097" y="904" as="sourcePoint" />
            <mxPoint x="-1157" y="860" as="targetPoint" />
          </mxGeometry>
        </mxCell>
        <mxCell id="CafVitOdwLeo8ROwjMI0-147" value="&amp;lt;&amp;lt;extend&amp;gt;&amp;gt;" style="edgeLabel;html=1;align=center;verticalAlign=middle;resizable=0;points=[];" vertex="1" connectable="0" parent="CafVitOdwLeo8ROwjMI0-146">
          <mxGeometry x="-0.0537" relative="1" as="geometry">
            <mxPoint as="offset" />
          </mxGeometry>
        </mxCell>
        <mxCell id="CafVitOdwLeo8ROwjMI0-148" style="edgeStyle=none;rounded=0;orthogonalLoop=1;jettySize=auto;html=1;exitX=0.4;exitY=0.061;exitDx=0;exitDy=0;entryX=0.6;entryY=1.029;entryDx=0;entryDy=0;dashed=1;entryPerimeter=0;exitPerimeter=0;" edge="1" parent="1" source="CafVitOdwLeo8ROwjMI0-119" target="CafVitOdwLeo8ROwjMI0-115">
          <mxGeometry relative="1" as="geometry">
            <mxPoint x="-987" y="894" as="sourcePoint" />
            <mxPoint x="-1047" y="850" as="targetPoint" />
          </mxGeometry>
        </mxCell>
        <mxCell id="CafVitOdwLeo8ROwjMI0-149" value="&amp;lt;&amp;lt;extend&amp;gt;&amp;gt;" style="edgeLabel;html=1;align=center;verticalAlign=middle;resizable=0;points=[];" vertex="1" connectable="0" parent="CafVitOdwLeo8ROwjMI0-148">
          <mxGeometry x="0.1346" y="-2" relative="1" as="geometry">
            <mxPoint as="offset" />
          </mxGeometry>
        </mxCell>
        <mxCell id="CafVitOdwLeo8ROwjMI0-150" value="Quản lý nhà cung cấp" style="ellipse;whiteSpace=wrap;html=1;" vertex="1" parent="1">
          <mxGeometry x="-1442.5" y="420" width="100" height="40" as="geometry" />
        </mxCell>
        <mxCell id="CafVitOdwLeo8ROwjMI0-152" style="edgeStyle=none;rounded=0;orthogonalLoop=1;jettySize=auto;html=1;exitX=0.5;exitY=0;exitDx=0;exitDy=0;entryX=0.5;entryY=1;entryDx=0;entryDy=0;dashed=1;" edge="1" parent="1" source="CafVitOdwLeo8ROwjMI0-154" target="CafVitOdwLeo8ROwjMI0-150">
          <mxGeometry relative="1" as="geometry" />
        </mxCell>
        <mxCell id="CafVitOdwLeo8ROwjMI0-153" value="&amp;lt;&amp;lt;extend&amp;gt;&amp;gt;" style="edgeLabel;html=1;align=center;verticalAlign=middle;resizable=0;points=[];" vertex="1" connectable="0" parent="CafVitOdwLeo8ROwjMI0-152">
          <mxGeometry x="0.0385" y="1" relative="1" as="geometry">
            <mxPoint x="1" y="21" as="offset" />
          </mxGeometry>
        </mxCell>
        <mxCell id="CafVitOdwLeo8ROwjMI0-154" value="Sửa" style="ellipse;whiteSpace=wrap;html=1;" vertex="1" parent="1">
          <mxGeometry x="-1507" y="555" width="70" height="30" as="geometry" />
        </mxCell>
        <mxCell id="CafVitOdwLeo8ROwjMI0-155" value="Thêm" style="ellipse;whiteSpace=wrap;html=1;rotation=-15;" vertex="1" parent="1">
          <mxGeometry x="-1420" y="535" width="55" height="30" as="geometry" />
        </mxCell>
        <mxCell id="CafVitOdwLeo8ROwjMI0-158" style="edgeStyle=none;rounded=0;orthogonalLoop=1;jettySize=auto;html=1;exitX=0;exitY=0;exitDx=0;exitDy=0;entryX=0.85;entryY=1;entryDx=0;entryDy=0;entryPerimeter=0;dashed=1;" edge="1" parent="1" source="CafVitOdwLeo8ROwjMI0-155" target="CafVitOdwLeo8ROwjMI0-150">
          <mxGeometry relative="1" as="geometry" />
        </mxCell>
        <mxCell id="CafVitOdwLeo8ROwjMI0-159" value="&amp;lt;&amp;lt;extend&amp;gt;&amp;gt;" style="edgeLabel;html=1;align=center;verticalAlign=middle;resizable=0;points=[];" vertex="1" connectable="0" parent="CafVitOdwLeo8ROwjMI0-158">
          <mxGeometry x="0.0351" y="1" relative="1" as="geometry">
            <mxPoint as="offset" />
          </mxGeometry>
        </mxCell>
        <mxCell id="CafVitOdwLeo8ROwjMI0-160" style="edgeStyle=none;rounded=0;orthogonalLoop=1;jettySize=auto;html=1;exitX=0;exitY=0;exitDx=0;exitDy=0;entryX=1;entryY=0.5;entryDx=0;entryDy=0;dashed=1;" edge="1" parent="1" source="CafVitOdwLeo8ROwjMI0-162" target="CafVitOdwLeo8ROwjMI0-150">
          <mxGeometry relative="1" as="geometry" />
        </mxCell>
        <mxCell id="CafVitOdwLeo8ROwjMI0-161" value="&amp;lt;&amp;lt;extend&amp;gt;&amp;gt;" style="edgeLabel;html=1;align=center;verticalAlign=middle;resizable=0;points=[];" vertex="1" connectable="0" parent="CafVitOdwLeo8ROwjMI0-160">
          <mxGeometry x="0.0165" y="-2" relative="1" as="geometry">
            <mxPoint as="offset" />
          </mxGeometry>
        </mxCell>
        <mxCell id="CafVitOdwLeo8ROwjMI0-162" value="Tìm kiếm" style="ellipse;whiteSpace=wrap;html=1;rotation=-45;" vertex="1" parent="1">
          <mxGeometry x="-1365" y="500" width="55" height="30" as="geometry" />
        </mxCell>
        <mxCell id="CafVitOdwLeo8ROwjMI0-163" style="edgeStyle=none;rounded=0;orthogonalLoop=1;jettySize=auto;html=1;exitX=0.5;exitY=0;exitDx=0;exitDy=0;entryX=1;entryY=0.5;entryDx=0;entryDy=0;dashed=1;" edge="1" parent="1" source="CafVitOdwLeo8ROwjMI0-165" target="CafVitOdwLeo8ROwjMI0-129">
          <mxGeometry relative="1" as="geometry" />
        </mxCell>
        <mxCell id="CafVitOdwLeo8ROwjMI0-164" value="&amp;lt;&amp;lt;extend&amp;gt;&amp;gt;" style="edgeLabel;html=1;align=center;verticalAlign=middle;resizable=0;points=[];rotation=-45;" vertex="1" connectable="0" parent="CafVitOdwLeo8ROwjMI0-163">
          <mxGeometry x="-0.1117" y="-1" relative="1" as="geometry">
            <mxPoint y="1" as="offset" />
          </mxGeometry>
        </mxCell>
        <mxCell id="CafVitOdwLeo8ROwjMI0-165" value="Tìm kiếm" style="ellipse;whiteSpace=wrap;html=1;rotation=-45;" vertex="1" parent="1">
          <mxGeometry x="-1162" y="590" width="55" height="30" as="geometry" />
        </mxCell>
        <mxCell id="CafVitOdwLeo8ROwjMI0-166" value="&amp;lt;&amp;lt;extend&amp;gt;&amp;gt;" style="edgeStyle=none;rounded=0;orthogonalLoop=1;jettySize=auto;html=1;exitX=0.5;exitY=0;exitDx=0;exitDy=0;entryX=1;entryY=0.5;entryDx=0;entryDy=0;dashed=1;" edge="1" parent="1" source="CafVitOdwLeo8ROwjMI0-168" target="CafVitOdwLeo8ROwjMI0-126">
          <mxGeometry relative="1" as="geometry" />
        </mxCell>
        <mxCell id="CafVitOdwLeo8ROwjMI0-168" value="Tìm kiếm" style="ellipse;whiteSpace=wrap;html=1;rotation=-15;" vertex="1" parent="1">
          <mxGeometry x="-1037" y="750" width="55" height="30" as="geometry" />
        </mxCell>
        <mxCell id="CafVitOdwLeo8ROwjMI0-169" style="edgeStyle=none;rounded=0;orthogonalLoop=1;jettySize=auto;html=1;exitX=0.5;exitY=0;exitDx=0;exitDy=0;entryX=1;entryY=0.5;entryDx=0;entryDy=0;dashed=1;" edge="1" parent="1" source="CafVitOdwLeo8ROwjMI0-171" target="CafVitOdwLeo8ROwjMI0-115">
          <mxGeometry relative="1" as="geometry" />
        </mxCell>
        <mxCell id="CafVitOdwLeo8ROwjMI0-170" value="&amp;lt;&amp;lt;extend&amp;gt;&amp;gt;" style="edgeLabel;html=1;align=center;verticalAlign=middle;resizable=0;points=[];" vertex="1" connectable="0" parent="CafVitOdwLeo8ROwjMI0-169">
          <mxGeometry x="-0.0443" y="2" relative="1" as="geometry">
            <mxPoint as="offset" />
          </mxGeometry>
        </mxCell>
        <mxCell id="CafVitOdwLeo8ROwjMI0-171" value="Tìm kiếm" style="ellipse;whiteSpace=wrap;html=1;rotation=-15;" vertex="1" parent="1">
          <mxGeometry x="-910" y="960" width="55" height="30" as="geometry" />
        </mxCell>
        <mxCell id="CafVitOdwLeo8ROwjMI0-172" style="edgeStyle=none;rounded=0;orthogonalLoop=1;jettySize=auto;html=1;exitX=1;exitY=0;exitDx=0;exitDy=0;entryX=0.731;entryY=0.924;entryDx=0;entryDy=0;entryPerimeter=0;dashed=1;" edge="1" parent="1" source="CafVitOdwLeo8ROwjMI0-150" target="CafVitOdwLeo8ROwjMI0-90">
          <mxGeometry relative="1" as="geometry" />
        </mxCell>
        <mxCell id="CafVitOdwLeo8ROwjMI0-173" value="&amp;lt;&amp;lt;include&amp;gt;&amp;gt;" style="edgeLabel;html=1;align=center;verticalAlign=middle;resizable=0;points=[];" vertex="1" connectable="0" parent="CafVitOdwLeo8ROwjMI0-172">
          <mxGeometry x="-0.1638" y="3" relative="1" as="geometry">
            <mxPoint as="offset" />
          </mxGeometry>
        </mxCell>
        <mxCell id="CafVitOdwLeo8ROwjMI0-175" value="&amp;lt;&amp;lt;extend&amp;gt;&amp;gt;" style="edgeStyle=none;rounded=0;orthogonalLoop=1;jettySize=auto;html=1;exitX=0.5;exitY=0;exitDx=0;exitDy=0;entryX=0.224;entryY=0.905;entryDx=0;entryDy=0;dashed=1;entryPerimeter=0;" edge="1" parent="1" source="CafVitOdwLeo8ROwjMI0-65" target="CafVitOdwLeo8ROwjMI0-150">
          <mxGeometry relative="1" as="geometry">
            <mxPoint x="-1507" y="560" as="sourcePoint" />
            <mxPoint x="-1567" y="475" as="targetPoint" />
          </mxGeometry>
        </mxCell>
        <mxCell id="CafVitOdwLeo8ROwjMI0-177" value="&amp;lt;&amp;lt;extend&amp;gt;&amp;gt;" style="edgeStyle=none;rounded=0;orthogonalLoop=1;jettySize=auto;html=1;exitX=0.5;exitY=0;exitDx=0;exitDy=0;dashed=1;entryX=0;entryY=1;entryDx=0;entryDy=0;" edge="1" parent="1" source="CafVitOdwLeo8ROwjMI0-179" target="CafVitOdwLeo8ROwjMI0-64">
          <mxGeometry relative="1" as="geometry">
            <mxPoint x="-1663.74" y="500" as="sourcePoint" />
            <mxPoint x="-1516.74" y="396" as="targetPoint" />
          </mxGeometry>
        </mxCell>
        <mxCell id="CafVitOdwLeo8ROwjMI0-179" value="Xóa" style="ellipse;whiteSpace=wrap;html=1;" vertex="1" parent="1">
          <mxGeometry x="-1640" y="505" width="70" height="30" as="geometry" />
        </mxCell>
        <mxCell id="CafVitOdwLeo8ROwjMI0-180" value="Sửa" style="ellipse;whiteSpace=wrap;html=1;rotation=-30;" vertex="1" parent="1">
          <mxGeometry x="-1577" y="470" width="70" height="30" as="geometry" />
        </mxCell>
        <mxCell id="CafVitOdwLeo8ROwjMI0-181" value="&amp;lt;&amp;lt;extend&amp;gt;&amp;gt;" style="edgeStyle=none;rounded=0;orthogonalLoop=1;jettySize=auto;html=1;exitX=0.5;exitY=0;exitDx=0;exitDy=0;dashed=1;entryX=0.5;entryY=1;entryDx=0;entryDy=0;" edge="1" parent="1" source="CafVitOdwLeo8ROwjMI0-180" target="CafVitOdwLeo8ROwjMI0-64">
          <mxGeometry relative="1" as="geometry">
            <mxPoint x="-1568.24" y="511" as="sourcePoint" />
            <mxPoint x="-1565.24" y="400" as="targetPoint" />
          </mxGeometry>
        </mxCell>
        <mxCell id="CafVitOdwLeo8ROwjMI0-182" value="Thêm" style="ellipse;whiteSpace=wrap;html=1;rotation=-30;" vertex="1" parent="1">
          <mxGeometry x="-1512" y="425" width="55" height="30" as="geometry" />
        </mxCell>
        <mxCell id="CafVitOdwLeo8ROwjMI0-184" value="&amp;lt;&amp;lt;extend&amp;gt;&amp;gt;" style="edgeStyle=none;rounded=0;orthogonalLoop=1;jettySize=auto;html=1;dashed=1;entryX=1;entryY=1;entryDx=0;entryDy=0;" edge="1" parent="1" target="CafVitOdwLeo8ROwjMI0-64">
          <mxGeometry relative="1" as="geometry">
            <mxPoint x="-1490" y="430" as="sourcePoint" />
            <mxPoint x="-1525" y="388" as="targetPoint" />
          </mxGeometry>
        </mxCell>
        <mxCell id="CafVitOdwLeo8ROwjMI0-185" value="Tìm kiếm" style="ellipse;whiteSpace=wrap;html=1;rotation=-45;" vertex="1" parent="1">
          <mxGeometry x="-1420" y="370" width="55" height="30" as="geometry" />
        </mxCell>
        <mxCell id="CafVitOdwLeo8ROwjMI0-186" value="&amp;lt;&amp;lt;extend&amp;gt;&amp;gt;" style="edgeStyle=none;rounded=0;orthogonalLoop=1;jettySize=auto;html=1;exitX=0.311;exitY=0.097;exitDx=0;exitDy=0;dashed=1;entryX=1;entryY=0.5;entryDx=0;entryDy=0;exitPerimeter=0;" edge="1" parent="1" source="CafVitOdwLeo8ROwjMI0-185" target="CafVitOdwLeo8ROwjMI0-64">
          <mxGeometry relative="1" as="geometry">
            <mxPoint x="-1442.5" y="421" as="sourcePoint" />
            <mxPoint x="-1460.5" y="349" as="targetPoint" />
          </mxGeometry>
        </mxCell>
      </root>
    </mxGraphModel>
  </diagram>
</mxfile>
